<svg xmlns="http://www.w3.org/2000/svg" xmlns:xlink="http://www.w3.org/1999/xlink" width="500" zoomAndPan="magnify" viewBox="0 0 375 374.999991" height="500" preserveAspectRatio="xMidYMid meet" version="1.0"><defs><g/><clipPath id="be46c14cc0"><path d="M 51.699219 56.371094 L 313.957031 56.371094 L 313.957031 318.628906 L 51.699219 318.628906 Z M 51.699219 56.371094 " clip-rule="nonzero"/></clipPath><clipPath id="9578aa427a"><path d="M 182.828125 56.371094 C 110.410156 56.371094 51.699219 115.078125 51.699219 187.5 C 51.699219 259.921875 110.410156 318.628906 182.828125 318.628906 C 255.25 318.628906 313.957031 259.921875 313.957031 187.5 C 313.957031 115.078125 255.25 56.371094 182.828125 56.371094 Z M 182.828125 56.371094 " clip-rule="nonzero"/></clipPath><clipPath id="5075303e05"><path d="M 61.929688 66.597656 L 303.730469 66.597656 L 303.730469 308.402344 L 61.929688 308.402344 Z M 61.929688 66.597656 " clip-rule="nonzero"/></clipPath><clipPath id="d14e8f7a62"><path d="M 182.828125 66.597656 C 116.058594 66.597656 61.929688 120.726562 61.929688 187.5 C 61.929688 254.273438 116.058594 308.402344 182.828125 308.402344 C 249.601562 308.402344 303.730469 254.273438 303.730469 187.5 C 303.730469 120.726562 249.601562 66.597656 182.828125 66.597656 Z M 182.828125 66.597656 " clip-rule="nonzero"/></clipPath><clipPath id="a254a1f05f"><path d="M 61.929688 66.597656 L 303.429688 66.597656 L 303.429688 308.097656 L 61.929688 308.097656 Z M 61.929688 66.597656 " clip-rule="nonzero"/></clipPath><clipPath id="915382c034"><path d="M 182.824219 66.597656 C 116.054688 66.597656 61.929688 120.726562 61.929688 187.496094 C 61.929688 254.265625 116.054688 308.390625 182.824219 308.390625 C 249.59375 308.390625 303.722656 254.265625 303.722656 187.496094 C 303.722656 120.726562 249.59375 66.597656 182.824219 66.597656 Z M 182.824219 66.597656 " clip-rule="nonzero"/></clipPath><clipPath id="0b06586734"><path d="M 79 89.277344 L 282 89.277344 L 282 284 L 79 284 Z M 79 89.277344 " clip-rule="nonzero"/></clipPath><clipPath id="ac7359f310"><path d="M 157 90 L 213.9375 90 L 213.9375 132 L 157 132 Z M 157 90 " clip-rule="nonzero"/></clipPath><clipPath id="55c3065835"><path d="M 151.6875 89.277344 L 213.9375 89.277344 L 213.9375 138 L 151.6875 138 Z M 151.6875 89.277344 " clip-rule="nonzero"/></clipPath></defs><g clip-path="url(#be46c14cc0)"><g clip-path="url(#9578aa427a)"><path fill="#fff7ff" d="M 51.699219 56.371094 L 313.957031 56.371094 L 313.957031 318.628906 L 51.699219 318.628906 Z M 51.699219 56.371094 " fill-opacity="1" fill-rule="nonzero"/></g></g><g clip-path="url(#5075303e05)"><g clip-path="url(#d14e8f7a62)"><path fill="#a25dda" d="M 61.929688 66.597656 L 303.730469 66.597656 L 303.730469 308.402344 L 61.929688 308.402344 Z M 61.929688 66.597656 " fill-opacity="1" fill-rule="nonzero"/></g></g><g clip-path="url(#a254a1f05f)"><g clip-path="url(#915382c034)"><path stroke-linecap="butt" transform="matrix(0.75, 0, 0, 0.75, 61.929214, 66.599424)" fill="none" stroke-linejoin="miter" d="M 161.19335 -0.00235757 C 72.167303 -0.00235757 0.000631289 72.169522 0.000631289 161.19557 C 0.000631289 250.221617 72.167303 322.388289 161.19335 322.388289 C 250.219398 322.388289 322.391277 250.221617 322.391277 161.19557 C 322.391277 72.169522 250.219398 -0.00235757 161.19335 -0.00235757 Z M 161.19335 -0.00235757 " stroke="#303030" stroke-width="12" stroke-opacity="1" stroke-miterlimit="4"/></g></g><g clip-path="url(#0b06586734)"><path fill="#b071e4" d="M 215.332031 89.472656 C 214.90625 89.476562 214.46875 89.496094 214.039062 89.53125 C 196.804688 92.503906 187.332031 110.726562 185.960938 126.792969 C 183.953125 141.375 190.378906 160.113281 206.386719 163.378906 C 208.707031 163.820312 211.121094 163.621094 213.390625 163.003906 C 232.667969 156.539062 241.296875 133.710938 238.507812 114.796875 C 237.699219 102.585938 228.492188 89.304688 215.328125 89.46875 Z M 142.277344 90.253906 C 131.5625 90.515625 123.214844 101.382812 121.515625 111.597656 C 117.9375 131.835938 127.144531 156.980469 148.226562 163.382812 C 150.203125 163.8125 152.246094 163.855469 154.242188 163.546875 C 168.492188 161.171875 174.527344 145.195312 173.933594 132.296875 C 173.503906 115.28125 164.664062 95.609375 146.996094 90.824219 C 145.378906 90.398438 143.804688 90.21875 142.277344 90.253906 Z M 262.015625 147.734375 C 243.480469 148.839844 230.773438 167.335938 228.960938 184.605469 C 226.507812 197.058594 233.148438 213.71875 247.359375 214.710938 C 267.175781 214.46875 280.695312 193.292969 281.257812 175.074219 C 282.511719 163.023438 275.410156 148.398438 262.015625 147.734375 Z M 99.785156 151.835938 C 91.898438 151.769531 84.144531 156.492188 81.566406 164.507812 C 74.691406 185.949219 88.496094 213.109375 111.207031 217.613281 C 120.6875 219.238281 129.015625 211.957031 131.363281 203.199219 C 136.34375 184.46875 126.117188 162.714844 108.800781 154.214844 C 105.980469 152.632812 102.871094 151.867188 99.785156 151.839844 Z M 182.878906 190.285156 C 167.417969 190.320312 151.714844 198.164062 141.707031 209.84375 C 130.894531 223.453125 122.039062 239.292969 118.574219 256.46875 C 114.363281 268.835938 123.902344 283.0625 137.121094 283.148438 C 153.023438 283.59375 166.6875 272.671875 182.5 271.863281 C 195.917969 269.816406 207.929688 276.792969 219.988281 281.363281 C 230.257812 285.753906 244.449219 284.070312 249.691406 273.019531 C 253.816406 261.753906 247.746094 249.742188 242.714844 239.738281 C 232.460938 223.503906 221.472656 206.4375 204.65625 196.300781 C 197.917969 192.121094 190.425781 190.269531 182.878906 190.285156 Z M 182.878906 190.285156 " fill-opacity="1" fill-rule="nonzero"/></g><path stroke-linecap="butt" transform="matrix(0.971023, 0, 0, 0.971023, 29.781496, 135.953561)" fill="none" stroke-linejoin="miter" d="M 2.952496 50.333059 L 2.952496 3.668361 L 49.617194 3.668361 L 49.617194 10.338195 L 16.284118 10.338195 L 16.284118 23.669816 L 42.951383 23.669816 L 42.951383 30.335627 L 16.284118 30.335627 L 16.284118 50.333059 Z M 76.067227 23.669816 L 82.733038 23.669816 L 82.733038 30.335627 L 76.067227 30.335627 L 76.067227 50.333059 L 62.735606 50.333059 L 62.735606 17.004005 L 76.067227 17.004005 Z M 102.73047 17.004005 L 102.73047 23.669816 L 82.733038 23.669816 L 82.733038 17.004005 Z M 115.848882 50.333059 L 115.848882 43.667248 L 109.183071 43.667248 L 109.183071 37.001438 L 115.848882 37.001438 L 115.848882 30.335627 L 142.512125 30.335627 L 142.512125 23.669816 L 115.848882 23.669816 L 115.848882 17.004005 L 149.181958 17.004005 L 149.181958 23.669816 L 155.847769 23.669816 L 155.847769 50.333059 Z M 122.514693 43.667248 L 142.512125 43.667248 L 142.512125 37.001438 L 122.514693 37.001438 Z M 162.296348 50.333059 L 162.296348 43.667248 L 195.629424 43.667248 L 195.629424 37.001438 L 168.962158 37.001438 L 168.962158 30.335627 L 162.296348 30.335627 L 162.296348 23.669816 L 168.962158 23.669816 L 168.962158 17.004005 L 202.295235 17.004005 L 202.295235 23.669816 L 175.627969 23.669816 L 175.627969 30.335627 L 202.295235 30.335627 L 202.295235 37.001438 L 208.961045 37.001438 L 208.961045 43.667248 L 202.295235 43.667248 L 202.295235 50.333059 Z M 222.079457 50.333059 L 222.079457 43.667248 L 215.413647 43.667248 L 215.413647 23.669816 L 222.079457 23.669816 L 222.079457 17.004005 L 255.408511 17.004005 L 255.408511 23.669816 L 262.074321 23.669816 L 262.074321 37.001438 L 228.745268 37.001438 L 228.745268 43.667248 L 255.408511 43.667248 L 255.408511 50.333059 Z M 228.745268 30.335627 L 248.7427 30.335627 L 248.7427 23.669816 L 228.745268 23.669816 Z M 288.524355 23.669816 L 295.190166 23.669816 L 295.190166 30.335627 L 288.524355 30.335627 L 288.524355 50.333059 L 275.192733 50.333059 L 275.192733 17.004005 L 288.524355 17.004005 Z M 315.19162 17.004005 L 315.19162 23.669816 L 295.190166 23.669816 L 295.190166 17.004005 Z M 315.19162 17.004005 " stroke="#fff7ff" stroke-width="3.999998" stroke-opacity="1" stroke-miterlimit="4"/><path stroke-linecap="butt" transform="matrix(0.971023, 0, 0, 0.971023, 29.781496, 135.953561)" fill="none" stroke-linejoin="miter" d="M 29.515168 111.335083 L 29.515168 64.670385 L 42.84679 64.670385 L 42.84679 84.667817 L 62.848245 84.667817 L 62.848245 64.670385 L 76.179866 64.670385 L 76.179866 111.335083 L 62.848245 111.335083 L 62.848245 91.333628 L 42.84679 91.333628 L 42.84679 111.335083 Z M 89.298278 111.335083 L 89.298278 104.669272 L 82.628445 104.669272 L 82.628445 97.999439 L 89.298278 97.999439 L 89.298278 91.333628 L 115.961521 91.333628 L 115.961521 84.667817 L 89.298278 84.667817 L 89.298278 78.002006 L 122.627332 78.002006 L 122.627332 84.667817 L 129.293142 84.667817 L 129.293142 111.335083 Z M 95.964089 104.669272 L 115.961521 104.669272 L 115.961521 97.999439 L 95.964089 97.999439 Z M 142.411554 111.335083 L 142.411554 104.669272 L 135.745744 104.669272 L 135.745744 84.667817 L 142.411554 84.667817 L 142.411554 78.002006 L 182.410441 78.002006 L 182.410441 84.667817 L 149.077365 84.667817 L 149.077365 104.669272 L 182.410441 104.669272 L 182.410441 111.335083 Z M 188.85902 111.335083 L 188.85902 64.670385 L 202.190641 64.670385 L 202.190641 91.333628 L 215.526285 91.333628 L 215.526285 84.667817 L 222.192096 84.667817 L 222.192096 78.002006 L 235.523718 78.002006 L 235.523718 84.667817 L 228.857907 84.667817 L 228.857907 91.333628 L 222.192096 91.333628 L 222.192096 97.999439 L 228.857907 97.999439 L 228.857907 104.669272 L 235.523718 104.669272 L 235.523718 111.335083 L 222.192096 111.335083 L 222.192096 104.669272 L 215.526285 104.669272 L 215.526285 97.999439 L 202.190641 97.999439 L 202.190641 111.335083 Z M 241.976319 111.335083 L 241.976319 104.669272 L 275.305372 104.669272 L 275.305372 97.999439 L 248.64213 97.999439 L 248.64213 91.333628 L 241.976319 91.333628 L 241.976319 84.667817 L 248.64213 84.667817 L 248.64213 78.002006 L 281.971183 78.002006 L 281.971183 84.667817 L 255.30794 84.667817 L 255.30794 91.333628 L 281.971183 91.333628 L 281.971183 97.999439 L 288.636994 97.999439 L 288.636994 104.669272 L 281.971183 104.669272 L 281.971183 111.335083 Z M 241.976319 111.335083 " stroke="#fff7ff" stroke-width="3.999998" stroke-opacity="1" stroke-miterlimit="4"/><g fill="#000000" fill-opacity="1"><g transform="translate(32.649048, 191.301879)"><g><path d="M 0 -6.46875 L 0 -51.78125 L 45.3125 -51.78125 L 45.3125 -45.3125 L 12.9375 -45.3125 L 12.9375 -32.359375 L 38.828125 -32.359375 L 38.828125 -25.890625 L 12.9375 -25.890625 L 12.9375 -6.46875 Z M 0 -6.46875 "/></g></g></g><g fill="#000000" fill-opacity="1"><g transform="translate(84.224649, 191.301879)"><g><path d="M 19.421875 -32.359375 L 25.890625 -32.359375 L 25.890625 -25.890625 L 19.421875 -25.890625 L 19.421875 -6.46875 L 6.46875 -6.46875 L 6.46875 -38.828125 L 19.421875 -38.828125 Z M 45.3125 -38.828125 L 45.3125 -32.359375 L 25.890625 -32.359375 L 25.890625 -38.828125 Z M 45.3125 -38.828125 "/></g></g></g><g fill="#000000" fill-opacity="1"><g transform="translate(135.800251, 191.301879)"><g><path d="M 6.46875 -6.46875 L 6.46875 -12.9375 L 0 -12.9375 L 0 -19.421875 L 6.46875 -19.421875 L 6.46875 -25.890625 L 32.359375 -25.890625 L 32.359375 -32.359375 L 6.46875 -32.359375 L 6.46875 -38.828125 L 38.828125 -38.828125 L 38.828125 -32.359375 L 45.3125 -32.359375 L 45.3125 -6.46875 Z M 12.9375 -12.9375 L 32.359375 -12.9375 L 32.359375 -19.421875 L 12.9375 -19.421875 Z M 12.9375 -12.9375 "/></g></g></g><g fill="#000000" fill-opacity="1"><g transform="translate(187.375852, 191.301879)"><g><path d="M 0 -6.46875 L 0 -12.9375 L 32.359375 -12.9375 L 32.359375 -19.421875 L 6.46875 -19.421875 L 6.46875 -25.890625 L 0 -25.890625 L 0 -32.359375 L 6.46875 -32.359375 L 6.46875 -38.828125 L 38.828125 -38.828125 L 38.828125 -32.359375 L 12.9375 -32.359375 L 12.9375 -25.890625 L 38.828125 -25.890625 L 38.828125 -19.421875 L 45.3125 -19.421875 L 45.3125 -12.9375 L 38.828125 -12.9375 L 38.828125 -6.46875 Z M 0 -6.46875 "/></g></g></g><g fill="#000000" fill-opacity="1"><g transform="translate(238.951453, 191.301879)"><g><path d="M 6.46875 -6.46875 L 6.46875 -12.9375 L 0 -12.9375 L 0 -32.359375 L 6.46875 -32.359375 L 6.46875 -38.828125 L 38.828125 -38.828125 L 38.828125 -32.359375 L 45.3125 -32.359375 L 45.3125 -19.421875 L 12.9375 -19.421875 L 12.9375 -12.9375 L 38.828125 -12.9375 L 38.828125 -6.46875 Z M 12.9375 -25.890625 L 32.359375 -25.890625 L 32.359375 -32.359375 L 12.9375 -32.359375 Z M 12.9375 -25.890625 "/></g></g></g><g fill="#000000" fill-opacity="1"><g transform="translate(290.52704, 191.301879)"><g><path d="M 19.421875 -32.359375 L 25.890625 -32.359375 L 25.890625 -25.890625 L 19.421875 -25.890625 L 19.421875 -6.46875 L 6.46875 -6.46875 L 6.46875 -38.828125 L 19.421875 -38.828125 Z M 45.3125 -38.828125 L 45.3125 -32.359375 L 25.890625 -32.359375 L 25.890625 -38.828125 Z M 45.3125 -38.828125 "/></g></g></g><g fill="#000000" fill-opacity="1"><g transform="translate(58.44185, 250.534289)"><g><path d="M 0 -6.46875 L 0 -51.78125 L 12.9375 -51.78125 L 12.9375 -32.359375 L 32.359375 -32.359375 L 32.359375 -51.78125 L 45.3125 -51.78125 L 45.3125 -6.46875 L 32.359375 -6.46875 L 32.359375 -25.890625 L 12.9375 -25.890625 L 12.9375 -6.46875 Z M 0 -6.46875 "/></g></g></g><g fill="#000000" fill-opacity="1"><g transform="translate(110.017451, 250.534289)"><g><path d="M 6.46875 -6.46875 L 6.46875 -12.9375 L 0 -12.9375 L 0 -19.421875 L 6.46875 -19.421875 L 6.46875 -25.890625 L 32.359375 -25.890625 L 32.359375 -32.359375 L 6.46875 -32.359375 L 6.46875 -38.828125 L 38.828125 -38.828125 L 38.828125 -32.359375 L 45.3125 -32.359375 L 45.3125 -6.46875 Z M 12.9375 -12.9375 L 32.359375 -12.9375 L 32.359375 -19.421875 L 12.9375 -19.421875 Z M 12.9375 -12.9375 "/></g></g></g><g fill="#000000" fill-opacity="1"><g transform="translate(161.593052, 250.534289)"><g><path d="M 6.46875 -6.46875 L 6.46875 -12.9375 L 0 -12.9375 L 0 -32.359375 L 6.46875 -32.359375 L 6.46875 -38.828125 L 45.3125 -38.828125 L 45.3125 -32.359375 L 12.9375 -32.359375 L 12.9375 -12.9375 L 45.3125 -12.9375 L 45.3125 -6.46875 Z M 6.46875 -6.46875 "/></g></g></g><g fill="#000000" fill-opacity="1"><g transform="translate(213.168653, 250.534289)"><g><path d="M 0 -6.46875 L 0 -51.78125 L 12.9375 -51.78125 L 12.9375 -25.890625 L 25.890625 -25.890625 L 25.890625 -32.359375 L 32.359375 -32.359375 L 32.359375 -38.828125 L 45.3125 -38.828125 L 45.3125 -32.359375 L 38.828125 -32.359375 L 38.828125 -25.890625 L 32.359375 -25.890625 L 32.359375 -19.421875 L 38.828125 -19.421875 L 38.828125 -12.9375 L 45.3125 -12.9375 L 45.3125 -6.46875 L 32.359375 -6.46875 L 32.359375 -12.9375 L 25.890625 -12.9375 L 25.890625 -19.421875 L 12.9375 -19.421875 L 12.9375 -6.46875 Z M 0 -6.46875 "/></g></g></g><g fill="#000000" fill-opacity="1"><g transform="translate(264.744255, 250.534289)"><g><path d="M 0 -6.46875 L 0 -12.9375 L 32.359375 -12.9375 L 32.359375 -19.421875 L 6.46875 -19.421875 L 6.46875 -25.890625 L 0 -25.890625 L 0 -32.359375 L 6.46875 -32.359375 L 6.46875 -38.828125 L 38.828125 -38.828125 L 38.828125 -32.359375 L 12.9375 -32.359375 L 12.9375 -25.890625 L 38.828125 -25.890625 L 38.828125 -19.421875 L 45.3125 -19.421875 L 45.3125 -12.9375 L 38.828125 -12.9375 L 38.828125 -6.46875 Z M 0 -6.46875 "/></g></g></g><path fill="#f7f7f0" d="M 212.566406 134.261719 L 211.65625 135.421875 L 210.5 136.332031 L 157.457031 136.332031 L 156.296875 135.421875 L 155.152344 134.261719 L 155.152344 118.121094 L 210.5 118.121094 L 211.65625 119.269531 L 212.253906 120.863281 L 211.65625 121.585938 L 210.949219 122.730469 L 159.273438 122.730469 L 159.273438 132.320312 L 211.210938 132.320312 L 211.65625 133.117188 Z M 168.289062 91.21875 L 165.066406 91.21875 L 165.066406 103.773438 L 168.289062 103.773438 Z M 197.820312 114.660156 L 197.820312 105.429688 L 195.515625 105.429688 L 195.515625 116.964844 L 197.820312 116.964844 Z M 202.429688 114.660156 L 202.429688 105.429688 L 200.125 105.429688 L 200.125 116.964844 L 202.429688 116.964844 Z M 202.429688 114.660156 " fill-opacity="1" fill-rule="nonzero"/><g clip-path="url(#ac7359f310)"><path fill="#f7f7f0" d="M 159.757812 122.730469 L 208.195312 122.730469 L 208.195312 131.746094 L 159.757812 131.746094 Z M 213.128906 92.75 L 213.128906 104.285156 L 157.441406 104.285156 L 157.441406 93.050781 L 158.601562 91.59375 L 159.757812 90.433594 L 210.75 90.433594 L 211.65625 91.59375 Z M 168.289062 91.21875 L 165.066406 91.21875 L 165.066406 103.773438 L 168.289062 103.773438 Z M 163.222656 107.734375 L 165.527344 107.734375 L 165.527344 105.429688 L 158.613281 105.429688 L 158.613281 107.734375 Z M 167.828125 105.429688 L 167.828125 107.734375 L 170.132812 107.734375 L 170.132812 105.429688 Z M 167.828125 105.429688 " fill-opacity="1" fill-rule="nonzero"/></g><g clip-path="url(#55c3065835)"><path fill="#000000" d="M 211.65625 91.59375 L 211.65625 103.113281 L 170.183594 103.113281 L 170.183594 91.59375 L 211.65625 91.59375 L 211.65625 89.289062 L 158.613281 89.289062 L 158.613281 91.59375 L 163.222656 91.59375 L 163.222656 103.113281 L 158.613281 103.113281 L 158.613281 91.59375 L 156.296875 91.59375 L 156.296875 103.113281 L 153.992188 103.113281 L 153.992188 105.417969 L 151.6875 105.417969 L 151.6875 116.9375 L 153.992188 116.9375 L 153.992188 135.371094 L 156.296875 135.371094 L 156.296875 119.242188 L 211.65625 119.242188 L 211.65625 116.9375 L 209.355469 116.9375 L 209.355469 105.417969 L 213.960938 105.417969 L 213.960938 91.59375 Z M 165.527344 107.734375 L 158.613281 107.734375 L 158.613281 105.429688 L 165.527344 105.429688 Z M 165.527344 103.113281 L 165.527344 91.59375 L 167.828125 91.59375 L 167.828125 103.113281 Z M 170.132812 107.734375 L 167.828125 107.734375 L 167.828125 105.429688 L 170.132812 105.429688 Z M 197.820312 107.746094 L 197.820312 116.964844 L 195.515625 116.964844 L 195.515625 105.441406 L 197.820312 105.441406 Z M 202.429688 107.746094 L 202.429688 116.964844 L 200.125 116.964844 L 200.125 105.441406 L 202.429688 105.441406 Z M 211.65625 119.269531 L 213.960938 119.269531 L 213.960938 121.570312 L 211.65625 121.570312 Z M 211.65625 133.117188 L 213.960938 133.117188 L 213.960938 135.421875 L 211.65625 135.421875 Z M 209.355469 135.421875 L 211.65625 135.421875 L 211.65625 137.726562 L 156.296875 137.726562 L 156.296875 135.421875 Z M 209.355469 126.191406 L 209.355469 123.886719 L 211.65625 123.886719 L 211.65625 121.585938 L 158.613281 121.585938 L 158.613281 133.105469 L 211.65625 133.105469 L 211.65625 130.800781 L 209.355469 130.800781 Z M 207 126.191406 L 207 130.800781 L 160.917969 130.800781 L 160.917969 123.886719 L 207 123.886719 Z M 207 126.191406 " fill-opacity="1" fill-rule="nonzero"/></g></svg>